<svg width="102" height="100" viewBox="0 0 102 100" fill="none" xmlns="http://www.w3.org/2000/svg">
<g id="chrome 2">
<g id="chrome">
<path id="Path" d="M50.7679 0.00894618C50.7679 0.00894618 80.7785 -1.31527 96.6842 28.2582C88.2816 28.2582 48.2165 28.2582 48.2165 28.2582C48.2165 28.2582 39.0631 27.9629 31.2602 38.8527C29.0095 43.4136 26.6092 48.1222 29.3101 57.391C25.409 50.9183 8.60229 22.2261 8.60229 22.2261C8.60229 22.2261 20.4574 1.18551 50.7679 0.00894618Z" fill="#E16B5A"/>
<path id="Path_2" d="M95.1222 75.0951C95.1222 75.0951 81.2836 101.238 47.2104 99.9521C51.4137 92.8185 71.4503 58.799 71.4503 58.799C71.4503 58.799 76.2874 51.1732 70.5754 39.1029C67.6717 34.9107 58.8754 30.5169 49.3379 28.1747C57.008 28.0997 96.5888 28.1794 96.5888 28.1794C96.5888 28.1794 109.241 48.7693 95.1222 75.0951Z" fill="#FFD464"/>
<path id="Path_3" d="M6.62756 75.2934C6.62756 75.2934 -9.54212 50.4684 8.63177 22.1777C12.8319 29.3145 32.8573 63.3402 32.8573 63.3402C32.8573 63.3402 37.1711 71.2605 50.6892 72.4449C55.8421 72.0762 61.2025 71.7629 68.0399 64.8371C64.2701 71.3863 47.3274 99.9988 47.3274 99.9988C47.3274 99.9988 22.8171 100.447 6.62756 75.2934Z" fill="#74B340"/>
<ellipse id="Oval" cx="50.6461" cy="50.4062" rx="23.0643" ry="22.6562" fill="white"/>
<ellipse id="Oval_2" cx="50.6383" cy="50.4062" rx="18.2924" ry="17.9688" fill="#2995CC"/>
<path id="Path_4" d="M50.643 32.4414C50.2787 32.4414 49.9184 32.4547 49.5605 32.475C59.1585 33.0258 66.7697 40.8437 66.7697 50.4094C66.7697 59.9766 59.1585 67.7953 49.5605 68.3461C49.9192 68.3656 50.2795 68.3797 50.643 68.3797C60.7444 68.3797 68.9354 60.3336 68.9354 50.4094C68.9354 40.4867 60.7444 32.4414 50.643 32.4414Z" fill="#268CBF"/>
</g>
</g>
</svg>
