<svg width="640" height="352" viewBox="0 0 640 352" fill="none" xmlns="http://www.w3.org/2000/svg">
<rect width="640" height="352" fill="#1E1E1E"/>
<g clip-path="url(#clip0_0_1)">
<rect width="1440" height="3616" transform="translate(0 -1196)" fill="white"/>
<rect x="-360" width="1000" height="352" rx="176" fill="#5267DF"/>
<g filter="url(#filter0_dd_0_1)">
<g filter="url(#filter1_d_0_1)">
<rect x="169" y="-83" width="536" height="346" rx="8" fill="#E8EAF6"/>
<mask id="mask0_0_1" style="mask-type:luminance" maskUnits="userSpaceOnUse" x="169" y="-83" width="536" height="346">
<rect x="169" y="-83" width="536" height="346" rx="8" fill="white"/>
</mask>
<g mask="url(#mask0_0_1)">
<rect x="226" y="10" width="261" height="316" rx="8" fill="white"/>
<rect x="521" y="10" width="128" height="316" rx="8" fill="white"/>
<rect opacity="0.5" x="304.469" y="48.1973" width="120" height="6" rx="3" fill="#242A45"/>
</g>
<circle cx="273.469" cy="58.1973" r="16" fill="#F98E5D"/>
<rect opacity="0.25" x="541.469" y="32.1973" width="88" height="6" rx="3" fill="#242A45"/>
<rect opacity="0.25" x="541.469" y="52.1973" width="88" height="6" rx="3" fill="#242A45"/>
<rect opacity="0.25" x="541.469" y="72.1973" width="88" height="6" rx="3" fill="#242A45"/>
<rect opacity="0.25" x="541.469" y="92.1973" width="88" height="6" rx="3" fill="#242A45"/>
<rect opacity="0.25" x="541.469" y="126.197" width="88" height="6" rx="3" fill="#242A45"/>
<rect opacity="0.25" x="541.469" y="146.197" width="88" height="6" rx="3" fill="#242A45"/>
<rect opacity="0.25" x="541.469" y="166.197" width="88" height="6" rx="3" fill="#242A45"/>
<rect opacity="0.25" x="304.469" y="62.1973" width="64" height="6" rx="3" fill="#242A45"/>
<circle cx="273.469" cy="114.197" r="16" fill="#6AC6D6"/>
<rect opacity="0.5" x="304.469" y="104.197" width="120" height="6" rx="3" fill="#242A45"/>
<rect opacity="0.25" x="304.469" y="118.197" width="64" height="6" rx="3" fill="#242A45"/>
<circle cx="273.469" cy="170.197" r="16" fill="#A47ED4"/>
<rect opacity="0.5" x="304.469" y="160.197" width="120" height="6" rx="3" fill="#242A45"/>
<rect opacity="0.25" x="304.469" y="174.197" width="64" height="6" rx="3" fill="#242A45"/>
<circle cx="273.469" cy="226.197" r="16" fill="#EC7878"/>
<rect opacity="0.5" x="304.469" y="216.197" width="120" height="6" rx="3" fill="#242A45"/>
<rect opacity="0.25" x="304.469" y="230.197" width="64" height="6" rx="3" fill="#242A45"/>
</g>
</g>
</g>
<defs>
<filter id="filter0_dd_0_1" x="165" y="-83" width="1114" height="354" filterUnits="userSpaceOnUse" color-interpolation-filters="sRGB">
<feFlood flood-opacity="0" result="BackgroundImageFix"/>
<feColorMatrix in="SourceAlpha" type="matrix" values="0 0 0 0 0 0 0 0 0 0 0 0 0 0 0 0 0 0 127 0" result="hardAlpha"/>
<feOffset dy="4"/>
<feGaussianBlur stdDeviation="2"/>
<feComposite in2="hardAlpha" operator="out"/>
<feColorMatrix type="matrix" values="0 0 0 0 0 0 0 0 0 0 0 0 0 0 0 0 0 0 0.25 0"/>
<feBlend mode="normal" in2="BackgroundImageFix" result="effect1_dropShadow_0_1"/>
<feColorMatrix in="SourceAlpha" type="matrix" values="0 0 0 0 0 0 0 0 0 0 0 0 0 0 0 0 0 0 127 0" result="hardAlpha"/>
<feOffset dy="4"/>
<feGaussianBlur stdDeviation="2"/>
<feComposite in2="hardAlpha" operator="out"/>
<feColorMatrix type="matrix" values="0 0 0 0 0 0 0 0 0 0 0 0 0 0 0 0 0 0 0.25 0"/>
<feBlend mode="normal" in2="effect1_dropShadow_0_1" result="effect2_dropShadow_0_1"/>
<feBlend mode="normal" in="SourceGraphic" in2="effect2_dropShadow_0_1" result="shape"/>
</filter>
<filter id="filter1_d_0_1" x="165" y="-83" width="544" height="354" filterUnits="userSpaceOnUse" color-interpolation-filters="sRGB">
<feFlood flood-opacity="0" result="BackgroundImageFix"/>
<feColorMatrix in="SourceAlpha" type="matrix" values="0 0 0 0 0 0 0 0 0 0 0 0 0 0 0 0 0 0 127 0" result="hardAlpha"/>
<feOffset dy="4"/>
<feGaussianBlur stdDeviation="2"/>
<feComposite in2="hardAlpha" operator="out"/>
<feColorMatrix type="matrix" values="0 0 0 0 0 0 0 0 0 0 0 0 0 0 0 0 0 0 0.25 0"/>
<feBlend mode="normal" in2="BackgroundImageFix" result="effect1_dropShadow_0_1"/>
<feBlend mode="normal" in="SourceGraphic" in2="effect1_dropShadow_0_1" result="shape"/>
</filter>
<clipPath id="clip0_0_1">
<rect width="1440" height="3616" fill="white" transform="translate(0 -1196)"/>
</clipPath>
</defs>
</svg>
